<svg width="30" height="30" viewBox="0 0 30 30" fill="none" xmlns="http://www.w3.org/2000/svg">
<g clip-path="url(#clip0_5_2)">
<path d="M30.0001 15C30.0001 6.7137 23.2864 -3.57628e-06 15.0001 -3.57628e-06C6.71387 -3.57628e-06 0.00012207 6.7137 0.00012207 15C0.00012207 23.2862 6.71387 30 15.0001 30C23.2864 30 30.0001 23.2862 30.0001 15ZM14.6751 23.1362L9.09887 8.6737C8.85637 8.0025 9.26262 7.4163 10.2776 7.6338L10.2763 7.6325L21.8776 10.095C22.7001 10.2775 22.9001 10.7663 22.5126 11.45L19.7488 15.2L21.4914 17.0088C21.6914 17.2088 21.8601 17.3775 21.8601 17.765L18.0439 17.4987L11.7651 10.5487C11.4988 10.2463 11.3489 10.6163 11.6139 11.015L17.0213 19.6037L15.8664 23.3062C15.6113 24.11 15.0626 24.1275 14.6751 23.1362Z" fill="white"/>
</g>
<defs>
<clipPath id="clip0_5_2">
<rect width="30" height="30" fill="white" transform="translate(0.00012207 30) rotate(-90)"/>
</clipPath>
</defs>
</svg>
